# xmcd
#
# Track frame offsets: 
#        150
#        14986
#        24866
#        38841
#        53925
#        65959
#        78118
#        94450
#        117233
#        123789
#        136108
#        146474
#        159348
#        180908
#        183601
#        198025
#        210140
#
# Disc length: 2879 seconds
#
# Revision: 0
# Processed by: cddbd v1.5PL3 Copyright (c) Steve Scherf et al.
# Submitted via: ExactAudioCopy v0.90b3
#
DISCID=de0b3d11
DTITLE=Imant DAKSIS - Revolucija v psihushke
DYEAR=2003
DGENRE=Jungle
TTITLE0=psihushka
TTITLE1=nu, chelovek, pogodi!
TTITLE2=ne zhaleju, ne zovu, ne plachu
TTITLE3=he bojus
TTITLE4=uhodi!
TTITLE5=pevolucija
TTITLE6=hops!
TTITLE7=pesenka
TTITLE8=negde ostatsja
TTITLE9=ai, ai, ai...
TTITLE10=nashi bratja
TTITLE11=ljubov
TTITLE12=psihushka
TTITLE13=konec
TTITLE14=nashi bratja (2aja muzikalnaja versija)
TTITLE15=revolucija
TTITLE16=budet spokoino
EXTD=
EXTT0=
EXTT1=
EXTT2=
EXTT3=
EXTT4=
EXTT5=
EXTT6=
EXTT7=
EXTT8=
EXTT9=
EXTT10=
EXTT11=
EXTT12=
EXTT13=
EXTT14=
EXTT15=
EXTT16=
PLAYORDER=
